<svg id="レイヤー_1" data-name="レイヤー 1" xmlns="http://www.w3.org/2000/svg" xmlns:xlink="http://www.w3.org/1999/xlink" viewBox="0 0 269.43 269.43"><defs><style>.cls-1{fill:url(#名称未設定グラデーション_195);}</style><linearGradient id="名称未設定グラデーション_195" x1="134.71" y1="269.43" x2="134.71" y2="-0.52" gradientUnits="userSpaceOnUse"><stop offset="0.19" stop-color="#313694"/><stop offset="1" stop-color="#13053f"/></linearGradient></defs><path class="cls-1" d="M206.51,102.57l-.11-.18-.14-.2L134.71-.52,63,102.37l-.12.2c-14.38,22.52-24.13,48.56-24.18,74.74a90.76,90.76,0,0,0,6.05,33.25,86.46,86.46,0,0,0,19.74,29.9h0A99.55,99.55,0,0,0,191.08,252L165.43,239l-32.58,16.43,6.22-34.8L112.72,196l36.42-5.08,16.29-31.66,16.28,31.66L218.13,196l-26.35,24.64,4.86,27.18a99.75,99.75,0,0,0,8.26-7.36,86.4,86.4,0,0,0,19.75-29.89,91.08,91.08,0,0,0,6-33.25C230.65,151.14,220.9,125.09,206.51,102.57Z"/></svg>