<svg id="レイヤー_1" data-name="レイヤー 1" xmlns="http://www.w3.org/2000/svg" xmlns:xlink="http://www.w3.org/1999/xlink" viewBox="0 0 191.97 269.95"><defs><style>.cls-1{fill:url(#名称未設定グラデーション_195);}</style><linearGradient id="名称未設定グラデーション_195" x1="95.98" y1="269.95" x2="95.98" gradientUnits="userSpaceOnUse"><stop offset="0.19" stop-color="#313694"/><stop offset="1" stop-color="#13053f"/></linearGradient></defs><path class="cls-1" d="M167.78,103.09l-.11-.18-.14-.2L96,0,24.3,102.9l-.12.19C9.8,125.62.05,151.66,0,177.83a90.73,90.73,0,0,0,6.05,33.25A86.49,86.49,0,0,0,25.79,241h0a99.57,99.57,0,0,0,126.55,11.48L126.7,239.53,94.12,256l6.22-34.79L74,196.52l36.42-5.08,16.29-31.66L143,191.44l36.42,5.08-26.35,24.65,4.86,27.18a103.53,103.53,0,0,0,8.26-7.36,86.58,86.58,0,0,0,19.75-29.9A91,91,0,0,0,192,177.84C191.92,151.66,182.16,125.62,167.78,103.09Z"/></svg>