<svg id="レイヤー_1" data-name="レイヤー 1" xmlns="http://www.w3.org/2000/svg" xmlns:xlink="http://www.w3.org/1999/xlink" viewBox="0 0 290 290"><defs><style>.cls-1{fill:#fff;}.cls-2{fill:url(#名称未設定グラデーション_195);}</style><linearGradient id="名称未設定グラデーション_195" x1="145" y1="279.45" x2="145" y2="9.5" gradientUnits="userSpaceOnUse"><stop offset="0.19" stop-color="#313694"/><stop offset="1" stop-color="#13053f"/></linearGradient></defs><rect class="cls-1" x="-8.5" y="-9.03" width="307.53" height="307.53"/><path class="cls-2" d="M216.8,112.6l-.11-.19-.14-.19L145,9.5,73.32,112.4l-.12.2C58.82,135.12,49.07,161.16,49,187.33a90.73,90.73,0,0,0,6,33.25,86.4,86.4,0,0,0,19.74,29.91h0A99.55,99.55,0,0,0,201.36,262L175.71,249l-32.57,16.42,6.22-34.79L123,206,159.43,201l16.28-31.66L192,201,228.41,206l-26.35,24.65,4.86,27.18a100.15,100.15,0,0,0,8.26-7.36,86.35,86.35,0,0,0,19.75-29.9,91,91,0,0,0,6-33.25C240.93,161.16,231.18,135.12,216.8,112.6Z"/></svg>