<svg id="レイヤー_1" data-name="レイヤー 1" xmlns="http://www.w3.org/2000/svg" xmlns:xlink="http://www.w3.org/1999/xlink" viewBox="0 0 191.97 269.43"><defs><style>.cls-1{fill:url(#名称未設定グラデーション_195);}</style><linearGradient id="名称未設定グラデーション_195" x1="95.98" y1="269.43" x2="95.98" y2="-0.52" gradientUnits="userSpaceOnUse"><stop offset="0.19" stop-color="#313694"/><stop offset="1" stop-color="#13053f"/></linearGradient></defs><path class="cls-1" d="M167.78,102.57l-.11-.18-.14-.2L96-.52,24.3,102.37l-.12.2C9.8,125.09.05,151.13,0,177.31a90.76,90.76,0,0,0,6.05,33.25,86.46,86.46,0,0,0,19.74,29.9h0A99.55,99.55,0,0,0,152.35,252L126.7,239,94.12,255.44l6.22-34.8L74,196l36.42-5.08,16.29-31.66L143,190.92,179.4,196l-26.35,24.64,4.86,27.18a99.75,99.75,0,0,0,8.26-7.36,86.54,86.54,0,0,0,19.75-29.89A91.08,91.08,0,0,0,192,177.32C191.92,151.14,182.16,125.09,167.78,102.57Z"/></svg>